<?xml version="1.0" encoding="UTF-8" standalone="no"?>
<!-- Created with Inkscape (http://www.inkscape.org/) -->

<svg
   width="400"
   height="235"
   viewBox="-10 -10 399.99999 235"
   version="1.1"
   id="svg1"
   xmlns="http://www.w3.org/2000/svg"
   xmlns:svg="http://www.w3.org/2000/svg">
  <defs
     id="defs1">
    <marker
       style="overflow:visible"
       id="marker10"
       refX="0"
       refY="0"
       orient="auto-start-reverse"
       markerWidth="1"
       markerHeight="1"
       viewBox="0 0 1 1"
       preserveAspectRatio="xMidYMid">
      <path
         style="fill:none;stroke:context-stroke;stroke-width:1;stroke-linecap:round"
         d="M 3,-3 0,0 3,3"
         transform="rotate(180,0.125,0)"
         id="path10" />
    </marker>
    <marker
       style="overflow:visible"
       id="ArrowWideRounded"
       refX="0"
       refY="0"
       orient="auto-start-reverse"
       markerWidth="1"
       markerHeight="1"
       viewBox="0 0 1 1"
       preserveAspectRatio="xMidYMid">
      <path
         style="fill:none;stroke:context-stroke;stroke-width:1;stroke-linecap:round"
         d="M 3,-3 0,0 3,3"
         transform="rotate(180,0.125,0)"
         id="path2" />
    </marker>
  </defs>
  <g
     id="layer1"
     transform="translate(10.449034,-10.925115)">
    <g
       id="text1"
       style="font-family:'Nirmala UI';-inkscape-font-specification:'Nirmala UI';white-space:pre;fill:#009682;stroke-width:1.33333"
       transform="matrix(7.1207722,0,0,7.2383953,-770.07393,-797.84165)"
       aria-label="D&#10;WATCH">
      <path
         style="font-size:12px;font-family:Forte;-inkscape-font-specification:'Forte, Normal';fill:none"
         d="m 120.125,113.15085 -1.17773,4.45312 q -0.0117,0.041 -0.0469,0.2168 -0.10547,0.46289 -0.24023,0.71485 -0.0937,0.19335 -0.29883,0.44531 0.16992,0.0117 0.38086,0.0117 0.50976,0 0.84961,-0.0645 0.33984,-0.0703 0.63281,-0.23437 0.29297,-0.16406 0.55078,-0.42188 0.48633,-0.49804 0.74414,-1.15429 0.26367,-0.65625 0.26367,-1.42383 0,-0.70313 -0.21093,-1.27735 -0.21094,-0.57421 -0.58594,-0.90234 -0.375,-0.33398 -0.86133,-0.36328 z m -3.96094,5.83008 1.39453,-4.70508 q 0.15235,-0.54492 0.31055,-0.76758 0.0996,-0.1289 0.26367,-0.2168 v -0.0234 h -0.082 q -0.16992,0 -0.70898,0.19336 -0.5918,0.20507 -0.81446,0.20507 -0.11718,0 -0.16406,-0.041 -0.041,-0.041 -0.041,-0.14063 0,-0.23437 0.1289,-0.50976 0.13477,-0.28125 0.34571,-0.50391 0.21093,-0.22265 0.43359,-0.3164 0.50976,-0.19922 1.38281,-0.31055 0.87305,-0.11133 1.89844,-0.11133 1.10156,0 1.875,0.3457 0.77344,0.34571 1.17187,1.02539 0.4043,0.67969 0.4043,1.64063 0,0.9668 -0.38672,1.95117 -0.38086,0.97852 -1.01367,1.64063 -1.48242,1.57031 -3.96094,1.57031 -0.79687,0 -1.45898,-0.12891 -0.65625,-0.1289 -0.86719,-0.3164 -0.13476,-0.10547 -0.13476,-0.31055 0,-0.0527 0.0234,-0.16992 z"
         id="path6" />
      <path
         style="font-size:12px;font-family:Forte;-inkscape-font-specification:'Forte, Normal'"
         d="m 120.19531,131.68816 h -0.0234 q -0.45118,0.8789 -0.9375,1.61133 -0.58008,0.86718 -0.97852,1.2832 -0.2168,0.20508 -0.53906,0.36328 -0.32227,0.15234 -0.55664,0.15234 -0.0586,0 -0.15821,-0.0351 -0.0937,-0.041 -0.15234,-0.11133 -0.29883,-0.32227 -0.48047,-1.65234 -0.18164,-1.33594 -0.18164,-3.24024 0,-1.54687 0.22852,-2.05664 0.0937,-0.2168 0.26953,-0.35742 0.17578,-0.14063 0.52148,-0.27539 0.30469,-0.12305 0.62695,-0.20508 0.32813,-0.082 0.51563,-0.082 0.16406,0 0.25781,0.082 0.0996,0.082 0.0996,0.22852 0,0.0586 -0.0234,0.1582 -0.12304,0.54492 -0.22851,1.53516 -0.0762,0.65625 -0.10547,1.0664 -0.0293,0.41016 -0.0527,1.11914 -0.0234,0.70899 -0.0293,1.40039 l 0.0234,0.0234 q 0.26367,-0.33984 0.5625,-0.81445 0.10546,-0.17578 0.20507,-0.32813 0.0996,-0.15234 0.2168,-0.35742 0.26953,-0.48047 0.48047,-0.9375 0.10547,-0.21094 0.1875,-0.42773 0.87891,-1.95704 1.23633,-2.26758 0.16406,-0.14649 0.59765,-0.27539 0.43946,-0.13477 0.78516,-0.13477 0.22266,0 0.36914,0.10547 0.14649,0.0996 0.14649,0.26953 0,0.15235 -0.15821,0.60938 -0.30469,0.88476 -0.49804,1.93359 -0.1875,1.04883 -0.1875,1.86914 0,1.66992 0.65039,1.66992 0.1875,0 0.38086,-0.28125 0.19335,-0.28125 0.32812,-0.71484 0.14063,-0.43359 0.22852,-1.00781 0.0937,-0.58008 0.0937,-1.18946 0,-0.36328 -0.0352,-0.86132 -0.0117,-0.13477 -0.0117,-0.25196 0,-0.64453 0.70899,-1.30078 0.3457,-0.33398 0.51562,-0.33398 0.4043,0 0.4043,1.52343 0,1.08399 -0.23438,2.07422 -0.29297,1.18946 -0.80859,2.02149 -0.26953,0.45117 -0.64453,0.86718 -0.36914,0.41602 -0.73242,0.66797 -0.4629,0.32227 -0.98438,0.32227 -0.96094,0 -1.42969,-0.74414 -0.46875,-0.75 -0.46875,-2.31445 z m 10.24805,-2.14453 -1.07813,2.27929 h 1.59375 l -0.49218,-2.27929 z m -0.50391,-1.54102 -0.35742,-0.64453 q 0.13477,-0.10547 0.25195,-0.14648 0.45118,-0.15235 1.08985,-0.15235 0.64453,0 0.99609,0.36914 0.30469,0.32227 0.49805,0.90235 0.19336,0.58007 0.35742,1.65234 0.0879,0.54492 0.15234,0.82031 0.20508,0.76758 0.26954,0.98438 0.0703,0.21093 0.24609,0.67968 0.0586,0.13477 0.15234,0.38086 0.0996,0.24024 0.1875,0.45118 0.19336,0.45703 0.58594,1.20703 -0.49219,0.3457 -0.83203,0.49804 -0.33984,0.15235 -0.62109,0.15235 -0.34571,0 -0.58008,-0.13477 -0.22852,-0.13476 -0.41602,-0.42773 -0.22265,-0.39844 -0.44531,-1.08399 -0.0234,-0.0645 -0.0586,-0.16406 -0.0293,-0.0996 -0.0703,-0.2168 -0.68554,0.28711 -1.0664,0.28711 -0.2168,0 -0.375,-0.0117 -0.13477,-0.0117 -1.24805,-0.0352 l -0.0586,0.11719 q -0.32813,0.68554 -0.60938,1.04296 -0.28125,0.35743 -0.65039,0.50391 -0.36328,0.14649 -0.91406,0.14649 -0.31641,0 -0.45117,-0.0703 -0.13477,-0.0703 -0.13477,-0.22851 0,-0.19336 0.64453,-1.06641 0.22852,-0.30469 0.33985,-0.48047 -0.61524,-0.11719 -0.61524,-0.43359 0,-0.25781 0.49219,-0.76758 0.23437,-0.24609 0.43359,-0.31055 0.20508,-0.0703 0.70899,-0.0762 0.46875,-0.86133 0.59765,-1.0957 0.12891,-0.24024 0.33399,-0.59766 0.20508,-0.36328 0.46289,-0.82031 0.26367,-0.46289 0.70312,-1.23047 z"
         id="path11" />
      <path
         style="font-weight:bold;font-size:11.1431px;font-family:'Segoe Script';-inkscape-font-specification:'Segoe Script, Bold';fill:#ff0000"
         d="m 143.04288,128.0284 q 0,0.16867 -0.0544,0.27205 -0.049,0.0979 -0.13058,0.15779 -0.0816,0.0544 -0.17956,0.0762 -0.0925,0.0163 -0.17955,0.0163 -0.19587,0 -0.35366,0 -0.15235,-0.005 -0.29925,-0.0109 -0.14691,-0.005 -0.31014,-0.005 -0.15779,-0.005 -0.36999,-0.005 -0.13602,0 -0.31557,0.0163 -0.17411,0.0163 -0.36455,0.0435 -0.19043,0.0272 -0.38086,0.0653 -0.19044,0.0381 -0.35367,0.0762 -0.16323,0.0381 -0.28837,0.0816 -0.1197,0.0381 -0.17411,0.0707 -0.0381,0.0218 -0.0707,0.12514 -0.0272,0.0979 -0.0272,0.17411 l -0.14146,1.30583 q -0.0816,0.76174 -0.15779,1.50171 -0.0707,0.73453 -0.0707,1.45274 0,0.0979 0.0163,0.28293 0.0163,0.17955 0.0381,0.3591 0.0218,0.17955 0.0381,0.31558 0.0163,0.13602 0.0163,0.1469 0,0.13059 -0.0435,0.26661 -0.0381,0.13602 -0.11426,0.24484 -0.0762,0.10882 -0.19043,0.17411 -0.10882,0.0707 -0.25029,0.0707 -0.0925,0 -0.19587,-0.049 -0.10338,-0.0435 -0.20132,-0.1197 -0.0979,-0.0816 -0.17411,-0.185 -0.0762,-0.10882 -0.1197,-0.22852 -0.049,-0.13602 -0.0762,-0.31557 -0.0272,-0.17955 -0.0435,-0.36455 -0.0163,-0.19043 -0.0218,-0.36998 -0.005,-0.185 -0.005,-0.3319 0,-0.24485 0.0272,-0.61483 0.0272,-0.37543 0.0653,-0.79982 0.0435,-0.42984 0.0925,-0.87056 0.049,-0.44616 0.0925,-0.83247 0.049,-0.39175 0.0816,-0.68012 0.0381,-0.28837 0.049,-0.40807 -0.17411,0 -0.44071,0.0326 -0.26661,0.0272 -0.57675,0.0653 -0.39175,0.049 -0.80526,0.0925 -0.41351,0.0435 -0.7835,0.0435 -0.0762,0 -0.2122,-0.0109 -0.13602,-0.0163 -0.2666,-0.0544 -0.13059,-0.0435 -0.22852,-0.11426 -0.0979,-0.0762 -0.0979,-0.19587 -0.0109,-0.0435 -0.0163,-0.0544 0,-0.0163 0,-0.0707 0,-0.0925 0.0163,-0.17955 0.0163,-0.0871 0.0599,-0.15779 0.0435,-0.0762 0.12514,-0.13058 0.0871,-0.0544 0.21764,-0.0871 0.30469,-0.0762 0.68012,-0.11426 0.37543,-0.0435 0.75085,-0.0435 0.0707,0 0.26117,-0.0218 0.19588,-0.0218 0.4516,-0.0544 0.26117,-0.0326 0.55498,-0.0707 0.29925,-0.0435 0.56586,-0.0816 0.27205,-0.0381 0.48425,-0.0707 0.21219,-0.0326 0.31013,-0.049 0.35366,-0.0653 0.70733,-0.14146 0.35366,-0.0762 0.70732,-0.14691 0.35367,-0.0707 0.70189,-0.11426 0.35366,-0.049 0.69644,-0.049 0.0435,0 0.14147,0.005 0.0979,0 0.22308,0.0109 0.12514,0.0109 0.26116,0.0326 0.14147,0.0218 0.26117,0.0598 0.0925,0.0272 0.16323,0.0979 0.0707,0.0707 0.1197,0.15779 0.0544,0.087 0.0816,0.17411 0.0272,0.0816 0.0272,0.13602 z m 6.57269,0.19588 q 0,0.2394 -0.005,0.38631 0,0.14146 -0.0163,0.2394 -0.0109,0.0925 -0.0435,0.15779 -0.0272,0.0599 -0.0762,0.13602 -0.0653,0.0925 -0.15235,0.17955 -0.0871,0.0816 -0.19587,0.14691 -0.10338,0.0653 -0.21764,0.10882 -0.11426,0.0381 -0.23396,0.0381 -0.20676,0 -0.29925,-0.13059 -0.0871,-0.13602 -0.0871,-0.38631 0,-0.11426 0.0326,-0.22852 0.0381,-0.15234 0.0599,-0.26116 0.0218,-0.10882 0.0326,-0.19044 0.0109,-0.0871 0.0109,-0.15778 0.005,-0.0762 0.005,-0.15779 0,-0.12514 -0.0599,-0.16867 -0.0544,-0.0435 -0.11427,-0.0435 -0.20675,0 -0.46792,0.0816 -0.26116,0.0816 -0.53865,0.22308 -0.27205,0.14147 -0.5441,0.3319 -0.26661,0.19044 -0.49513,0.40808 -0.43528,0.41895 -0.8107,0.91952 -0.36999,0.49513 -0.64204,1.0229 -0.27205,0.52777 -0.42439,1.06099 -0.15235,0.53321 -0.15235,1.02834 0,0.19588 0.0599,0.46248 0.0653,0.26661 0.22308,0.50601 0.16323,0.23941 0.43528,0.40808 0.27749,0.16323 0.70188,0.16323 0.35367,0 0.73997,-0.0871 0.38631,-0.0925 0.77806,-0.24484 0.39175,-0.15235 0.77262,-0.35367 0.38087,-0.20675 0.72909,-0.43527 0.2122,-0.14147 0.35366,-0.22308 0.14147,-0.0816 0.23941,-0.0925 0.10337,0 0.17411,0.0326 0.0707,0.0326 0.10882,0.0816 0.0435,0.049 0.0599,0.10882 0.0218,0.0544 0.0218,0.10338 0,0.0925 -0.0762,0.22308 -0.0707,0.12514 -0.185,0.25572 -0.11426,0.13059 -0.25028,0.25573 -0.13058,0.1197 -0.24484,0.20676 -0.33734,0.25572 -0.7563,0.48968 -0.41895,0.23396 -0.87599,0.40808 -0.4516,0.17955 -0.91953,0.28293 -0.46248,0.10337 -0.88688,0.10337 -0.13058,0 -0.36998,-0.0381 -0.2394,-0.0381 -0.52778,-0.14147 -0.28293,-0.10338 -0.58218,-0.28293 -0.29381,-0.17955 -0.53321,-0.46248 -0.23941,-0.28293 -0.39719,-0.68012 -0.15235,-0.39719 -0.15235,-0.93041 0,-0.5713 0.14691,-1.15348 0.15234,-0.58218 0.42983,-1.15893 0.27749,-0.57674 0.66924,-1.13716 0.39719,-0.56042 0.88688,-1.08275 0.19043,-0.20132 0.42439,-0.40807 0.23941,-0.20676 0.50057,-0.39719 0.26661,-0.19588 0.54954,-0.36455 0.28293,-0.16867 0.5713,-0.29381 0.28837,-0.12514 0.56586,-0.19588 0.28293,-0.0762 0.5441,-0.0762 0.39719,0 0.68012,0.14147 0.28837,0.14146 0.46792,0.35366 0.185,0.2122 0.27205,0.45704 0.0871,0.24484 0.0871,0.4516 z m 9.21699,-1.34936 q 0,0.27749 -0.0653,0.71821 -0.0598,0.44072 -0.16867,1.03378 -0.1197,0.64203 -0.25028,1.39289 -0.13059,0.74541 -0.19044,1.52347 0,0.0381 -0.0109,0.19043 -0.0109,0.15235 -0.0272,0.38631 -0.0163,0.23396 -0.0381,0.53322 -0.0163,0.29381 -0.0326,0.62571 -0.0163,0.32646 -0.0272,0.66924 -0.0109,0.34278 -0.0109,0.66924 0,0.18499 -0.0707,0.33189 -0.0653,0.14147 -0.17955,0.23941 -0.11426,0.10338 -0.26661,0.15234 -0.15234,0.0544 -0.32101,0.0544 -0.0979,0 -0.21764,-0.0435 -0.11426,-0.0381 -0.21764,-0.11971 -0.0979,-0.0762 -0.16867,-0.19587 -0.0707,-0.1197 -0.0707,-0.28293 0,-0.10882 0.0218,-0.30469 0.0272,-0.19588 0.0599,-0.44072 0.0381,-0.24485 0.0816,-0.52234 0.0435,-0.27749 0.0762,-0.54953 0.0381,-0.27205 0.0599,-0.5169 0.0272,-0.24484 0.0272,-0.42439 0,-0.0979 -0.0163,-0.17411 -0.0163,-0.0762 -0.0925,-0.0762 -0.16323,0 -0.44072,0.0218 -0.27749,0.0163 -0.58219,0.0435 -0.29925,0.0218 -0.58762,0.0435 -0.28293,0.0163 -0.46248,0.0163 -0.0381,0 -0.19044,0.0109 -0.1469,0.005 -0.35366,0.0163 -0.20131,0.0109 -0.43528,0.0326 -0.23396,0.0163 -0.44071,0.0326 -0.20676,0.0163 -0.35911,0.0381 -0.1469,0.0163 -0.18499,0.0326 -0.0272,0.0272 -0.0653,0.22308 -0.0326,0.19587 -0.0707,0.45704 -0.0326,0.25572 -0.0599,0.52233 -0.0272,0.26117 -0.0381,0.4244 0,0.34278 -0.0435,0.66923 -0.0381,0.32646 -0.14147,0.58219 -0.0979,0.25572 -0.26116,0.40807 -0.16323,0.15779 -0.40807,0.15779 -0.15235,0 -0.27749,-0.0762 -0.1197,-0.0762 -0.20676,-0.19587 -0.0871,-0.1197 -0.13602,-0.25573 -0.049,-0.14146 -0.049,-0.26116 0,-0.11426 0.0218,-0.26661 0.0272,-0.15235 0.0598,-0.30469 0.0327,-0.15235 0.0599,-0.27749 0.0272,-0.13059 0.0326,-0.19044 0.0707,-0.3319 0.14146,-0.76717 0.0762,-0.43528 0.14691,-0.94129 0.0762,-0.51145 0.14691,-1.07187 0.0762,-0.56042 0.14146,-1.13716 0.0707,-0.58219 0.13602,-1.15893 0.0653,-0.57674 0.11971,-1.1154 0.0109,-0.0816 0.0599,-0.16867 0.0544,-0.0925 0.13602,-0.16323 0.0871,-0.0762 0.19588,-0.12514 0.10881,-0.049 0.22852,-0.049 0.0272,0 0.049,0.005 0.0218,0 0.049,0.005 0.20676,0.0381 0.3319,0.10881 0.12514,0.0653 0.19044,0.16867 0.0653,0.10338 0.0871,0.24485 0.0218,0.14146 0.0218,0.32646 0,0.34822 -0.049,0.72909 -0.049,0.37542 -0.13603,0.76717 -0.0381,0.17955 -0.0762,0.37543 -0.0326,0.19587 -0.0598,0.39175 -0.0272,0.19587 -0.0435,0.38087 -0.0163,0.17955 -0.0163,0.33734 0.0109,0.0163 0.0544,0.0272 0.049,0.0109 0.10882,0.0163 0.0599,0.005 0.1197,0.0109 0.0653,0 0.10882,0 0.0816,0 0.27749,0 0.19587,-0.005 0.45704,-0.0163 0.26116,-0.0109 0.56586,-0.0218 0.31013,-0.0163 0.62027,-0.0381 0.31557,-0.0218 0.60939,-0.049 0.29381,-0.0326 0.53321,-0.0707 0.2394,-0.0381 0.39175,-0.0871 0.15779,-0.049 0.19588,-0.10881 0.0272,-0.0381 0.0707,-0.21764 0.0435,-0.185 0.0925,-0.46249 0.0544,-0.27748 0.10337,-0.62571 0.0544,-0.35366 0.0979,-0.73453 0.0435,-0.38086 0.0707,-0.76717 0.0272,-0.38631 0.0272,-0.73453 0,-0.0653 0.0544,-0.16323 0.0544,-0.0979 0.1469,-0.19044 0.0925,-0.0979 0.22308,-0.16323 0.13059,-0.0653 0.27749,-0.0653 0.0979,0 0.22308,0.0327 0.12515,0.0326 0.23396,0.0979 0.11426,0.0653 0.19044,0.16867 0.0762,0.10337 0.0816,0.24484 z"
         id="path12" />
    </g>
    <path
       style="fill:none;stroke:#107cc7;stroke-width:3.58967;stroke-opacity:1;-inkscape-stroke:none"
       d="m 27.111234,189.38824 c 59.42619,1.56906 76.537396,2.61492 127.580806,0.61311 123.95981,-4.86144 -67.229831,-66.1257 92.12842,-79.28247 76.8175,-6.34213 70.85329,-34.635973 75.88835,-51.780768 6.68754,-22.77163 29.55374,-27.685401 42.79195,-27.978239"
       id="path7" />
    <path
       style="display:inline;fill:none;fill-rule:evenodd;stroke:#000000;stroke-width:6.03422px;stroke-linecap:butt;stroke-linejoin:miter;stroke-opacity:1;marker-end:url(#ArrowWideRounded)"
       d="M 9.8473955,207.06368 10.501789,25.520013"
       id="path8" />
    <path
       style="display:inline;fill:none;fill-rule:evenodd;stroke:#000000;stroke-width:6.19268px;stroke-linecap:butt;stroke-linejoin:miter;stroke-opacity:1;marker-end:url(#marker10)"
       d="M 7.7216605,204.04744 363.68794,204.01124"
       id="path9" />
    <path
       style="font-size:120px;font-family:'MV Boli';-inkscape-font-specification:'MV Boli, Normal';white-space:pre;fill:#009682;stroke-width:0.5"
       d="m 28.074682,108.3195 q 2.695313,-1.93359 5.449219,-2.40234 2.8125,-0.52734 5.917969,-0.82031 L 54.090307,45.799973 q -0.234375,0 -1.347656,0 -1.054688,-0.05859 -2.402344,-0.175782 Q 49.051245,45.44841 47.762182,45.096848 46.47312,44.745285 45.828588,44.100754 45.53562,43.690598 45.06687,43.046066 44.656713,42.342941 44.246557,41.581223 43.836401,40.76091 43.543432,39.940598 q -0.292969,-0.820313 -0.292969,-1.640625 0,-1.347657 1.113282,-2.226563 1.171875,-0.9375 2.8125,-1.464844 1.699218,-0.585937 3.632812,-0.820312 1.933594,-0.234375 3.515625,-0.234375 7.382813,0 13.652344,0.46875 6.328125,0.410156 11.777344,1.875 5.507812,1.464844 10.3125,4.160156 4.863281,2.695313 9.257812,7.207031 1.640628,1.699219 3.105468,3.808594 1.52344,2.109375 2.63672,4.628906 1.17187,2.460938 1.875,5.332032 0.70312,2.8125 0.70312,5.976562 0,1.699219 -0.17578,3.574219 -0.17578,1.875 -0.46875,3.222656 -1.69922,6.796875 -4.80468,12.070313 -3.046879,5.214843 -7.148442,9.316406 -4.042968,4.042969 -8.90625,7.031246 -4.863281,2.98829 -10.078125,5.21485 -5.214843,2.22656 -10.605468,3.86719 -5.390625,1.64062 -10.488282,2.92968 h 0.05859 q -2.285156,0.70313 -4.921875,1.23047 -2.636719,0.52735 -5.332031,0.87891 -2.695313,0.35156 -5.390625,0.58594 -2.636719,0.17578 -4.980469,0.17578 -2.578125,0 -4.335937,-0.29297 -1.757813,-0.35156 -2.871094,-0.87891 -1.054688,-0.58594 -1.523438,-1.28906 -0.46875,-0.70313 -0.46875,-1.52344 0,-1.17187 0.644532,-2.40234 0.703125,-1.28906 2.226562,-2.40235 z m 25.78125,-16.816402 q -0.703125,2.988281 -1.464844,6.152343 -0.761718,3.164059 -1.464843,6.210939 l 1.347656,-0.29297 q 1.289062,-0.29297 3.457031,-0.87891 2.226563,-0.58593 5.097656,-1.46484 2.871094,-0.87891 6.035157,-2.109375 3.164062,-1.230469 6.679687,-2.929687 3.574219,-1.757813 7.03125,-3.925782 3.457031,-2.226562 6.621094,-4.804687 3.164062,-2.578125 5.566406,-5.507813 2.402344,-2.988281 3.808594,-6.210937 1.464844,-3.28125 1.464844,-6.796875 0,-3.574219 -1.40625,-6.738281 -1.40625,-3.222657 -3.808594,-5.917969 -2.34375,-2.753906 -5.507813,-4.863281 -3.105468,-2.167969 -6.503906,-3.691407 -3.398437,-1.523437 -6.914062,-2.285156 -3.457032,-0.820312 -6.5625,-0.820312 -4.394532,11.367187 -7.5,23.085937 -3.105469,11.71875 -5.976563,23.789063 z"
       id="text2"
       aria-label="D" />
    <path
       d="m 58.794699,77.088049 q 0.546875,-2.223959 1.677084,-4.703127 1.166667,-2.515626 3.026043,-5.067711 1.859376,-2.552084 4.447919,-4.994794 2.625001,-2.442709 6.052086,-4.557294 0.546876,-0.328125 1.677084,-0.692708 1.130209,-0.401042 2.333335,-0.473959 1.421876,-1.531251 3.828127,-1.531251 2.843751,0 4.776044,1.458334 1.968751,1.421876 3.244793,3.901044 0.401042,0.802084 0.729167,1.567709 0.364583,0.765625 0.583334,1.640626 0.255208,0.838542 0.401041,1.822917 0.145834,0.984376 0.145834,2.22396 0,2.880209 -0.911459,5.869794 -0.911459,2.989585 -2.588543,5.833336 -1.677084,2.843752 -4.083335,5.468753 -2.369793,2.588543 -5.286461,4.666669 -1.968751,1.421876 -4.375002,2.187501 -2.369793,0.802084 -5.322919,0.802084 -2.807293,0 -4.885419,-0.765626 -2.041668,-0.729167 -3.427085,-2.114584 -1.348959,-1.385417 -2.041668,-3.31771 -0.65625,-1.932293 -0.65625,-4.302085 0,-2.296876 0.65625,-4.921878 z m 6.052086,0.473959 q -0.21875,0.838542 -0.328125,1.604167 -0.07292,0.729167 -0.07292,1.421876 0,1.203126 0.291667,2.260418 0.328125,1.020834 1.020834,1.786459 0.692709,0.729167 1.713543,1.166667 1.057292,0.401042 2.552084,0.401042 2.770835,0 5.140628,-1.385417 2.406251,-1.421876 4.265627,-3.53646 1.859376,-2.114585 3.098959,-4.520836 1.276043,-2.442709 1.78646,-4.484377 0.328125,-1.276042 0.546875,-2.406251 0.255208,-1.130209 0.255208,-2.078126 0,-0.947917 -0.364583,-1.750001 -0.328125,-0.838542 -0.875001,-1.859376 -0.328125,-0.619792 -0.65625,-1.276042 -0.328125,-0.692709 -0.583334,-1.348959 -0.291666,0.510417 -0.619791,0.911459 -0.328126,0.364583 -0.984376,0.692708 -0.65625,0.291667 -1.786459,0.546876 -1.130209,0.255208 -2.953127,0.4375 -1.203125,0.401042 -2.442709,1.239584 -1.239584,0.838542 -2.44271,1.968751 -1.166667,1.130209 -2.260417,2.442709 -1.057292,1.312501 -1.932293,2.697918 -0.838542,1.348959 -1.494792,2.66146 -0.619792,1.3125 -0.875001,2.406251 z"
       id="text4"
       style="font-size:74.6667px;font-family:'MV Boli';-inkscape-font-specification:'MV Boli, Normal';white-space:pre;fill:#107cc7;stroke-width:0.5"
       aria-label="o" />
    <path
       id="path4"
       style="stroke-width:0.5"
       d="m 81.019891,74.344475 a 5.9777765,5.9777765 0 0 1 -5.977777,5.977776 5.9777765,5.9777765 0 0 1 -5.977776,-5.977776 5.9777765,5.9777765 0 0 1 5.977776,-5.977777 5.9777765,5.9777765 0 0 1 5.977777,5.977777 z" />
    <g
       id="text19"
       style="font-family:'Nirmala UI';-inkscape-font-specification:'Nirmala UI';white-space:pre;fill:#009682;stroke-width:1.33333"
       transform="matrix(7.1207722,0,0,7.2383953,-770.07393,-775.76982)"
       aria-label="DRIFT">
      <path
         style="fill:none"
         d="m 116.97852,119.94187 v -8.40235 h 2.32031 q 4.4414,0 4.4414,4.0957 0,1.94532 -1.23632,3.12891 -1.23047,1.17774 -3.29883,1.17774 z m 0.98437,-7.51172 v 6.62109 h 1.25391 q 1.65234,0 2.57226,-0.88477 0.91992,-0.88476 0.91992,-2.50781 0,-3.22851 -3.43359,-3.22851 z"
         id="path1" />
      <path
         style="font-size:12px;font-family:Forte;-inkscape-font-specification:'Forte, Normal'"
         d="m 126.35352,113.70163 0.1582,-0.39844 q -0.17578,0.0176 -0.36328,0.0527 -0.11719,0.0234 -0.32227,0.0234 -0.28711,0 -0.28711,-0.28711 0,-0.12305 0.0703,-0.28711 0.0762,-0.16993 0.16992,-0.25782 0.20508,-0.19336 0.85547,-0.3164 0.65625,-0.12305 1.53515,-0.12305 0.67383,0 1.2832,0.18164 0.61524,0.18164 1.06055,0.50391 0.44531,0.3164 0.69141,0.73242 0.25195,0.41016 0.25195,0.89648 0,0.52149 -0.2168,0.97266 -0.21679,0.44531 -0.61523,0.7793 -0.26367,0.22265 -0.49219,0.33984 -0.22851,0.11719 -0.65625,0.24609 0.11133,0.20508 0.19336,0.31641 0.0879,0.11133 0.28711,0.31055 0.52734,0.47461 1.51172,0.86133 0.0469,0.0234 0.11719,0.0469 -0.10547,0.49805 -0.19922,0.72656 -0.0937,0.22852 -0.29297,0.49805 -0.36328,0.48047 -0.87305,0.48047 -0.28125,0 -0.69726,-0.20508 -0.41016,-0.21094 -0.67383,-0.49219 -0.20508,-0.24023 -0.38086,-0.50976 -0.16992,-0.26953 -0.3457,-0.60938 -0.17578,-0.3457 -0.30469,-0.66797 -0.12305,-0.32812 -0.18164,-0.57421 -0.0117,-0.0469 -0.0117,-0.13477 0,-0.12305 0.0703,-0.19336 0.0703,-0.0703 0.25782,-0.12891 0.26367,-0.0937 0.43359,-0.20507 0.16992,-0.11719 0.42773,-0.35743 0.29297,-0.32226 0.45703,-0.75 0.16993,-0.43359 0.16993,-0.87304 0,-0.52149 -0.24024,-0.8086 -0.24023,-0.29297 -0.76758,-0.41015 -0.5039,1.83398 -0.99609,3.45117 l -0.12305,0.44531 q -0.30468,1.05469 -0.51562,1.56445 -0.20508,0.50977 -0.41016,0.71485 -0.20508,0.20508 -0.63867,0.4043 -0.43359,0.19921 -0.67969,0.19921 -0.48047,0 -0.48047,-0.53906 0,-0.22265 0.12891,-0.76172 0.13477,-0.54492 0.41016,-1.41797 0.27539,-0.8789 0.57422,-1.71679 0.30468,-0.83789 0.65039,-1.72266 z m 9.61523,-0.70898 h -0.0469 q -0.49218,0 -1.63476,0.375 -0.84375,0.27539 -1.11328,0.27539 -0.1875,0 -0.32227,-0.11719 -0.13476,-0.12305 -0.13476,-0.29297 0,-0.28125 0.3164,-0.69141 0.32227,-0.41601 0.64453,-0.54492 0.47461,-0.19336 1.99219,-0.19336 0.60352,0 1.21289,0.0586 0.60938,0.0586 1.02539,0.16406 0.42188,0.0996 0.53321,0.21094 0.0586,0.0586 0.0586,0.25195 0,0.18164 -0.0996,0.64453 -0.0937,0.45703 -0.22266,0.87891 -0.82617,2.58398 -1.95703,4.64648 -0.28125,0.51563 -0.54492,0.79688 -0.25781,0.28125 -0.57422,0.40429 -0.31054,0.11719 -0.74414,0.11719 -0.62109,0 -1.1543,-0.23437 -0.5332,-0.24024 -0.84375,-0.64453 -0.30468,-0.41016 -0.30468,-0.89649 0,-0.33984 0.14062,-0.72656 0.14649,-0.39258 0.32813,-0.60352 0.0879,-0.11133 0.20508,-0.11133 0.19335,0 0.36328,0.18165 0.16992,0.18164 0.36914,0.62109 0.28711,0.66211 0.65625,1.10742 0.041,0.0527 0.18164,0.20508 0.27539,-0.61524 0.42187,-1.00781 0.15235,-0.39844 0.34571,-1.06055 0.13476,-0.42188 0.45703,-1.62891 0.25195,-1.01367 0.44531,-2.18554 z m 4.82227,1.15429 0.13476,-0.33984 q -0.65625,-0.0176 -0.91992,-0.12891 -0.25781,-0.11718 -0.25781,-0.39843 0,-0.22852 0.18164,-0.45118 0.20508,-0.28125 0.43945,-0.50976 0.23438,-0.23438 0.43359,-0.33399 0.16993,-0.0703 0.46875,-0.0703 0.72657,0 1.64649,0.082 0.21094,0.0117 0.35156,0.0176 0.14063,0.006 0.30469,0.0176 0.38672,0 0.49219,0.0176 0.10546,0.0117 0.25195,0.0703 0.0996,0.0352 0.16992,0.10547 0.14649,0.15234 0.14649,0.48047 0,0.60937 -0.42188,0.77929 -0.24609,0.10547 -0.44531,0.14063 -0.19922,0.0293 -0.72071,0.0762 l -0.63281,2.09766 q 0.45117,0 0.73242,-0.0234 0.17579,-0.0117 0.53907,-0.0117 0.42773,0 0.60351,0.0937 0.17578,0.0879 0.17578,0.31641 0,0.17578 -0.16992,0.50976 -0.16992,0.33399 -0.36914,0.53321 -0.0937,0.0937 -0.26367,0.1289 -0.16992,0.0293 -0.58008,0.0293 H 143 142.85352 q -0.39258,0 -0.89649,0.0352 -0.26367,0.89062 -0.48633,1.36523 -0.22265,0.46875 -0.54492,0.79687 -0.22266,0.22852 -0.47461,0.35157 -0.24609,0.12304 -0.46289,0.12304 -0.35742,0 -0.62109,-0.20507 -0.25782,-0.20508 -0.25782,-0.47461 0,-0.32813 0.55665,-2.05078 0.55664,-1.72266 1.125,-3.16993 z"
         id="path3" />
      <path
         style="font-weight:bold;font-size:11.1431px;font-family:'Segoe Script';-inkscape-font-specification:'Segoe Script, Bold';fill:#ff0000"
         d="m 153.41397,112.82508 q 0,0.16867 -0.0544,0.27205 -0.049,0.0979 -0.13058,0.15779 -0.0816,0.0544 -0.17955,0.0762 -0.0925,0.0163 -0.17955,0.0163 -0.19588,0 -0.35367,0 -0.15234,-0.005 -0.29925,-0.0109 -0.14691,-0.005 -0.31014,-0.005 -0.15778,-0.005 -0.36998,-0.005 -0.13603,0 -0.31558,0.0163 -0.17411,0.0163 -0.36454,0.0435 -0.19044,0.0272 -0.38087,0.0653 -0.19043,0.0381 -0.35366,0.0762 -0.16323,0.0381 -0.28837,0.0816 -0.11971,0.0381 -0.17411,0.0707 -0.0381,0.0218 -0.0707,0.12515 -0.0272,0.0979 -0.0272,0.17411 l -0.14147,1.30583 q -0.0816,0.76173 -0.15779,1.5017 -0.0707,0.73454 -0.0707,1.45274 0,0.0979 0.0163,0.28293 0.0163,0.17956 0.0381,0.35911 0.0218,0.17955 0.0381,0.31557 0.0163,0.13603 0.0163,0.14691 0,0.13058 -0.0435,0.26661 -0.0381,0.13602 -0.11426,0.24484 -0.0762,0.10882 -0.19043,0.17411 -0.10882,0.0707 -0.25029,0.0707 -0.0925,0 -0.19587,-0.049 -0.10338,-0.0435 -0.20132,-0.1197 -0.0979,-0.0816 -0.17411,-0.18499 -0.0762,-0.10882 -0.1197,-0.22852 -0.049,-0.13602 -0.0762,-0.31558 -0.0272,-0.17955 -0.0435,-0.36454 -0.0163,-0.19043 -0.0218,-0.36999 -0.005,-0.18499 -0.005,-0.3319 0,-0.24484 0.0272,-0.61482 0.0272,-0.37543 0.0653,-0.79983 0.0435,-0.42983 0.0925,-0.87055 0.049,-0.44616 0.0925,-0.83247 0.049,-0.39175 0.0816,-0.68012 0.0381,-0.28837 0.049,-0.40807 -0.17411,0 -0.44072,0.0326 -0.26661,0.0272 -0.57674,0.0653 -0.39175,0.049 -0.80527,0.0925 -0.41351,0.0435 -0.78349,0.0435 -0.0762,0 -0.2122,-0.0109 -0.13603,-0.0163 -0.26661,-0.0544 -0.13058,-0.0435 -0.22852,-0.11426 -0.0979,-0.0762 -0.0979,-0.19588 -0.0109,-0.0435 -0.0163,-0.0544 0,-0.0163 0,-0.0707 0,-0.0925 0.0163,-0.17955 0.0163,-0.0871 0.0599,-0.15779 0.0435,-0.0762 0.12515,-0.13058 0.0871,-0.0544 0.21763,-0.0871 0.3047,-0.0762 0.68012,-0.11426 0.37543,-0.0435 0.75086,-0.0435 0.0707,0 0.26116,-0.0218 0.19588,-0.0218 0.4516,-0.0544 0.26117,-0.0327 0.55498,-0.0707 0.29926,-0.0435 0.56586,-0.0816 0.27205,-0.0381 0.48425,-0.0707 0.2122,-0.0327 0.31014,-0.049 0.35366,-0.0653 0.70732,-0.14146 0.35366,-0.0762 0.70733,-0.14691 0.35366,-0.0707 0.70188,-0.11426 0.35366,-0.049 0.69644,-0.049 0.0435,0 0.14147,0.005 0.0979,0 0.22308,0.0109 0.12514,0.0109 0.26117,0.0327 0.14146,0.0218 0.26116,0.0598 0.0925,0.0272 0.16323,0.0979 0.0707,0.0707 0.1197,0.15779 0.0544,0.0871 0.0816,0.17411 0.0272,0.0816 0.0272,0.13602 z"
         id="path5" />
    </g>
  </g>
</svg>
